<svg xmlns="http://www.w3.org/2000/svg" width="6470" height="3184" viewBox="0 0 6470 3184">
  <defs>
    <style>
      .cls-1 {
        fill: #f60;
        fill-rule: evenodd;
      }
    </style>
  </defs>
  <path id="_" data-name=" " class="cls-1" d="M0,2914s173.844,18.87,339-14c145.033-28.87,284-110,284-110s470.21,421.81,889,392c358.94-25.55,652-512,652-512s348.75,189.64,700,103c335.92-82.86,660.09-342.84,975-488,327.99-151.19,747-154,747-154s202.6-17.93,585,108c192.7,63.46,531.49,303.18,718,383,307.09,131.43,559,106,559,106l22-1957s-311.44,655.32-582,580c-294.11-81.87-881.28-804.91-1212-1053C4241.83-27.689,3869,1,3869,1s-233.89,3.921-484,194c-245.72,186.74-417.17,551.962-649,779-244.51,239.45-635,332-635,332s-464.13,92.95-883-31c-198.09-58.62-397.6-238.96-576-326C286.494,775.561,16,689,16,689Z"/>
</svg>
